<svg width="500" height="500" viewBox="0 0 500 500" fill="none" xmlns="http://www.w3.org/2000/svg">
<circle cx="250" cy="250" r="250" fill="#054ADA"/>
<g clip-path="url(#clip0_3611_337)">
<path d="M266.03 156.555H167.873V197.634H266.03V220.111L226.69 223.987C170.21 229.413 152.293 242.976 152.293 284.443V295.294C152.293 327.072 175.274 343.736 203.709 343.736C216.563 343.736 230.585 340.636 244.608 333.273L266.031 322.422V341.412H307.319V197.634L266.03 156.555ZM266.03 282.118L239.543 295.682C229.416 301.495 218.9 304.595 210.72 304.595C200.593 304.595 193.581 301.107 193.581 288.318V279.792C194.36 266.228 203.319 262.74 233.701 259.64L266.03 256.151V282.117V282.118Z" fill="white"/>
<path d="M307.319 156.555H266.031V197.634H307.319V156.555Z" fill="#FF8800"/>
<path d="M348.608 197.631H307.32V341.411H348.608V197.631Z" fill="#FF8800"/>
</g>
<defs>
<clipPath id="clip0_3611_337">
<rect width="355" height="355" fill="white" transform="translate(73 72)"/>
</clipPath>
</defs>
</svg>
